<mxfile host="app.diagrams.net" agent="Mozilla/5.0 (Windows NT 10.0; Win64; x64) AppleWebKit/537.36 (KHTML, like Gecko) Chrome/129.0.0.0 Safari/537.36 Edg/129.0.0.0" version="24.7.8">
  <diagram name="Page-1" id="IjlSSJWFKwLKXx9vyrj8">
    <mxGraphModel dx="2900" dy="1367" grid="1" gridSize="10" guides="1" tooltips="1" connect="1" arrows="1" fold="1" page="1" pageScale="1" pageWidth="850" pageHeight="1100" math="0" shadow="0">
      <root>
        <mxCell id="0" />
        <mxCell id="1" parent="0" />
        <mxCell id="N1RvEzRXoRiaCv0YoRP5-213" value="Enhanced SRM TRP Engineering College Technical Forum" style="whiteSpace=wrap;strokeWidth=2;" vertex="1" parent="1">
          <mxGeometry x="2378" y="20" width="417" height="34" as="geometry" />
        </mxCell>
        <mxCell id="N1RvEzRXoRiaCv0YoRP5-214" value="Software Domain" style="whiteSpace=wrap;strokeWidth=2;" vertex="1" parent="1">
          <mxGeometry x="642" y="104" width="137" height="34" as="geometry" />
        </mxCell>
        <mxCell id="N1RvEzRXoRiaCv0YoRP5-215" value="Hardware Domain" style="whiteSpace=wrap;strokeWidth=2;" vertex="1" parent="1">
          <mxGeometry x="1841" y="104" width="142" height="34" as="geometry" />
        </mxCell>
        <mxCell id="N1RvEzRXoRiaCv0YoRP5-216" value="Integrated Domain" style="whiteSpace=wrap;strokeWidth=2;" vertex="1" parent="1">
          <mxGeometry x="3088" y="104" width="148" height="34" as="geometry" />
        </mxCell>
        <mxCell id="N1RvEzRXoRiaCv0YoRP5-217" value="Miscellaneous Domain" style="whiteSpace=wrap;strokeWidth=2;" vertex="1" parent="1">
          <mxGeometry x="4316" y="104" width="171" height="34" as="geometry" />
        </mxCell>
        <mxCell id="N1RvEzRXoRiaCv0YoRP5-218" value="Web &amp; Mobile Development" style="whiteSpace=wrap;strokeWidth=2;" vertex="1" parent="1">
          <mxGeometry x="20" y="187" width="213" height="34" as="geometry" />
        </mxCell>
        <mxCell id="N1RvEzRXoRiaCv0YoRP5-219" value="AI &amp; Machine Learning" style="whiteSpace=wrap;strokeWidth=2;" vertex="1" parent="1">
          <mxGeometry x="283" y="187" width="175" height="34" as="geometry" />
        </mxCell>
        <mxCell id="N1RvEzRXoRiaCv0YoRP5-220" value="Data Science &amp; Analytics" style="whiteSpace=wrap;strokeWidth=2;" vertex="1" parent="1">
          <mxGeometry x="508" y="187" width="192" height="34" as="geometry" />
        </mxCell>
        <mxCell id="N1RvEzRXoRiaCv0YoRP5-221" value="Cloud Computing" style="whiteSpace=wrap;strokeWidth=2;" vertex="1" parent="1">
          <mxGeometry x="749" y="187" width="137" height="34" as="geometry" />
        </mxCell>
        <mxCell id="N1RvEzRXoRiaCv0YoRP5-222" value="Cybersecurity" style="whiteSpace=wrap;strokeWidth=2;" vertex="1" parent="1">
          <mxGeometry x="936" y="187" width="113" height="34" as="geometry" />
        </mxCell>
        <mxCell id="N1RvEzRXoRiaCv0YoRP5-223" value="Blockchain Technology" style="whiteSpace=wrap;strokeWidth=2;" vertex="1" parent="1">
          <mxGeometry x="1100" y="187" width="176" height="34" as="geometry" />
        </mxCell>
        <mxCell id="N1RvEzRXoRiaCv0YoRP5-224" value="Robotics &amp; Automation" style="whiteSpace=wrap;strokeWidth=2;" vertex="1" parent="1">
          <mxGeometry x="1325" y="187" width="178" height="34" as="geometry" />
        </mxCell>
        <mxCell id="N1RvEzRXoRiaCv0YoRP5-225" value="Electronics &amp; Circuits" style="whiteSpace=wrap;strokeWidth=2;" vertex="1" parent="1">
          <mxGeometry x="1553" y="187" width="169" height="34" as="geometry" />
        </mxCell>
        <mxCell id="N1RvEzRXoRiaCv0YoRP5-226" value="3D Printing &amp; Additive Manufacturing" style="whiteSpace=wrap;strokeWidth=2;" vertex="1" parent="1">
          <mxGeometry x="1773" y="187" width="280" height="34" as="geometry" />
        </mxCell>
        <mxCell id="N1RvEzRXoRiaCv0YoRP5-227" value="Mechanical &amp; Electrical Systems" style="whiteSpace=wrap;strokeWidth=2;" vertex="1" parent="1">
          <mxGeometry x="2102" y="187" width="245" height="34" as="geometry" />
        </mxCell>
        <mxCell id="N1RvEzRXoRiaCv0YoRP5-228" value="Nanotechnology" style="whiteSpace=wrap;strokeWidth=2;" vertex="1" parent="1">
          <mxGeometry x="2397" y="187" width="129" height="34" as="geometry" />
        </mxCell>
        <mxCell id="N1RvEzRXoRiaCv0YoRP5-229" value="Internet of Things IoT" style="whiteSpace=wrap;strokeWidth=2;" vertex="1" parent="1">
          <mxGeometry x="2577" y="187" width="170" height="34" as="geometry" />
        </mxCell>
        <mxCell id="N1RvEzRXoRiaCv0YoRP5-230" value="Embedded Systems" style="whiteSpace=wrap;strokeWidth=2;" vertex="1" parent="1">
          <mxGeometry x="2797" y="187" width="152" height="34" as="geometry" />
        </mxCell>
        <mxCell id="N1RvEzRXoRiaCv0YoRP5-231" value="Computer Vision" style="whiteSpace=wrap;strokeWidth=2;" vertex="1" parent="1">
          <mxGeometry x="2999" y="187" width="132" height="34" as="geometry" />
        </mxCell>
        <mxCell id="N1RvEzRXoRiaCv0YoRP5-232" value="AR/VR Technologies" style="whiteSpace=wrap;strokeWidth=2;" vertex="1" parent="1">
          <mxGeometry x="3181" y="187" width="157" height="34" as="geometry" />
        </mxCell>
        <mxCell id="N1RvEzRXoRiaCv0YoRP5-233" value="Autonomous Systems" style="whiteSpace=wrap;strokeWidth=2;" vertex="1" parent="1">
          <mxGeometry x="3388" y="187" width="165" height="34" as="geometry" />
        </mxCell>
        <mxCell id="N1RvEzRXoRiaCv0YoRP5-234" value="Quantum Computing" style="whiteSpace=wrap;strokeWidth=2;" vertex="1" parent="1">
          <mxGeometry x="3603" y="187" width="162" height="34" as="geometry" />
        </mxCell>
        <mxCell id="N1RvEzRXoRiaCv0YoRP5-235" value="Project Management" style="whiteSpace=wrap;strokeWidth=2;" vertex="1" parent="1">
          <mxGeometry x="3814" y="187" width="162" height="34" as="geometry" />
        </mxCell>
        <mxCell id="N1RvEzRXoRiaCv0YoRP5-236" value="Technical Writing &amp; Communication" style="whiteSpace=wrap;strokeWidth=2;" vertex="1" parent="1">
          <mxGeometry x="4027" y="187" width="270" height="34" as="geometry" />
        </mxCell>
        <mxCell id="N1RvEzRXoRiaCv0YoRP5-237" value="UI/UX Design" style="whiteSpace=wrap;strokeWidth=2;" vertex="1" parent="1">
          <mxGeometry x="4347" y="187" width="109" height="34" as="geometry" />
        </mxCell>
        <mxCell id="N1RvEzRXoRiaCv0YoRP5-238" value="Digital Marketing" style="whiteSpace=wrap;strokeWidth=2;" vertex="1" parent="1">
          <mxGeometry x="4506" y="187" width="137" height="34" as="geometry" />
        </mxCell>
        <mxCell id="N1RvEzRXoRiaCv0YoRP5-239" value="Innovation &amp; Entrepreneurship" style="whiteSpace=wrap;strokeWidth=2;" vertex="1" parent="1">
          <mxGeometry x="4692" y="187" width="235" height="34" as="geometry" />
        </mxCell>
        <mxCell id="N1RvEzRXoRiaCv0YoRP5-240" value="" style="curved=1;startArrow=none;endArrow=block;exitX=0;exitY=0.63;entryX=0.5;entryY=-0.01;rounded=0;" edge="1" parent="1" source="N1RvEzRXoRiaCv0YoRP5-213" target="N1RvEzRXoRiaCv0YoRP5-214">
          <mxGeometry relative="1" as="geometry">
            <Array as="points">
              <mxPoint x="711" y="79" />
            </Array>
          </mxGeometry>
        </mxCell>
        <mxCell id="N1RvEzRXoRiaCv0YoRP5-241" value="" style="curved=1;startArrow=none;endArrow=block;exitX=0;exitY=0.87;entryX=0.5;entryY=-0.01;rounded=0;" edge="1" parent="1" source="N1RvEzRXoRiaCv0YoRP5-213" target="N1RvEzRXoRiaCv0YoRP5-215">
          <mxGeometry relative="1" as="geometry">
            <Array as="points">
              <mxPoint x="1912" y="79" />
            </Array>
          </mxGeometry>
        </mxCell>
        <mxCell id="N1RvEzRXoRiaCv0YoRP5-242" value="" style="curved=1;startArrow=none;endArrow=block;exitX=1;exitY=0.94;entryX=0.5;entryY=-0.01;rounded=0;" edge="1" parent="1" source="N1RvEzRXoRiaCv0YoRP5-213" target="N1RvEzRXoRiaCv0YoRP5-216">
          <mxGeometry relative="1" as="geometry">
            <Array as="points">
              <mxPoint x="3162" y="79" />
            </Array>
          </mxGeometry>
        </mxCell>
        <mxCell id="N1RvEzRXoRiaCv0YoRP5-243" value="" style="curved=1;startArrow=none;endArrow=block;exitX=1;exitY=0.63;entryX=0.5;entryY=-0.01;rounded=0;" edge="1" parent="1" source="N1RvEzRXoRiaCv0YoRP5-213" target="N1RvEzRXoRiaCv0YoRP5-217">
          <mxGeometry relative="1" as="geometry">
            <Array as="points">
              <mxPoint x="4401" y="79" />
            </Array>
          </mxGeometry>
        </mxCell>
        <mxCell id="N1RvEzRXoRiaCv0YoRP5-244" value="" style="curved=1;startArrow=none;endArrow=block;exitX=0;exitY=0.62;entryX=0.5;entryY=0;rounded=0;" edge="1" parent="1" source="N1RvEzRXoRiaCv0YoRP5-214" target="N1RvEzRXoRiaCv0YoRP5-218">
          <mxGeometry relative="1" as="geometry">
            <Array as="points">
              <mxPoint x="126" y="162" />
            </Array>
          </mxGeometry>
        </mxCell>
        <mxCell id="N1RvEzRXoRiaCv0YoRP5-245" value="" style="curved=1;startArrow=none;endArrow=block;exitX=0;exitY=0.73;entryX=0.5;entryY=0;rounded=0;" edge="1" parent="1" source="N1RvEzRXoRiaCv0YoRP5-214" target="N1RvEzRXoRiaCv0YoRP5-219">
          <mxGeometry relative="1" as="geometry">
            <Array as="points">
              <mxPoint x="370" y="162" />
            </Array>
          </mxGeometry>
        </mxCell>
        <mxCell id="N1RvEzRXoRiaCv0YoRP5-246" value="" style="curved=1;startArrow=none;endArrow=block;exitX=0.19;exitY=0.97;entryX=0.5;entryY=0;rounded=0;" edge="1" parent="1" source="N1RvEzRXoRiaCv0YoRP5-214" target="N1RvEzRXoRiaCv0YoRP5-220">
          <mxGeometry relative="1" as="geometry">
            <Array as="points">
              <mxPoint x="603" y="162" />
            </Array>
          </mxGeometry>
        </mxCell>
        <mxCell id="N1RvEzRXoRiaCv0YoRP5-247" value="" style="curved=1;startArrow=none;endArrow=block;exitX=0.81;exitY=0.97;entryX=0.5;entryY=0;rounded=0;" edge="1" parent="1" source="N1RvEzRXoRiaCv0YoRP5-214" target="N1RvEzRXoRiaCv0YoRP5-221">
          <mxGeometry relative="1" as="geometry">
            <Array as="points">
              <mxPoint x="818" y="162" />
            </Array>
          </mxGeometry>
        </mxCell>
        <mxCell id="N1RvEzRXoRiaCv0YoRP5-248" value="" style="curved=1;startArrow=none;endArrow=block;exitX=1;exitY=0.78;entryX=0.5;entryY=0;rounded=0;" edge="1" parent="1" source="N1RvEzRXoRiaCv0YoRP5-214" target="N1RvEzRXoRiaCv0YoRP5-222">
          <mxGeometry relative="1" as="geometry">
            <Array as="points">
              <mxPoint x="993" y="162" />
            </Array>
          </mxGeometry>
        </mxCell>
        <mxCell id="N1RvEzRXoRiaCv0YoRP5-249" value="" style="curved=1;startArrow=none;endArrow=block;exitX=1;exitY=0.66;entryX=0.5;entryY=0;rounded=0;" edge="1" parent="1" source="N1RvEzRXoRiaCv0YoRP5-214" target="N1RvEzRXoRiaCv0YoRP5-223">
          <mxGeometry relative="1" as="geometry">
            <Array as="points">
              <mxPoint x="1187" y="162" />
            </Array>
          </mxGeometry>
        </mxCell>
        <mxCell id="N1RvEzRXoRiaCv0YoRP5-250" value="" style="curved=1;startArrow=none;endArrow=block;exitX=0;exitY=0.66;entryX=0.5;entryY=0;rounded=0;" edge="1" parent="1" source="N1RvEzRXoRiaCv0YoRP5-215" target="N1RvEzRXoRiaCv0YoRP5-224">
          <mxGeometry relative="1" as="geometry">
            <Array as="points">
              <mxPoint x="1414" y="162" />
            </Array>
          </mxGeometry>
        </mxCell>
        <mxCell id="N1RvEzRXoRiaCv0YoRP5-251" value="" style="curved=1;startArrow=none;endArrow=block;exitX=0;exitY=0.8;entryX=0.5;entryY=0;rounded=0;" edge="1" parent="1" source="N1RvEzRXoRiaCv0YoRP5-215" target="N1RvEzRXoRiaCv0YoRP5-225">
          <mxGeometry relative="1" as="geometry">
            <Array as="points">
              <mxPoint x="1638" y="162" />
            </Array>
          </mxGeometry>
        </mxCell>
        <mxCell id="N1RvEzRXoRiaCv0YoRP5-252" value="" style="curved=1;startArrow=none;endArrow=block;exitX=0.5;exitY=0.97;entryX=0.5;entryY=0;rounded=0;" edge="1" parent="1" source="N1RvEzRXoRiaCv0YoRP5-215" target="N1RvEzRXoRiaCv0YoRP5-226">
          <mxGeometry relative="1" as="geometry">
            <Array as="points" />
          </mxGeometry>
        </mxCell>
        <mxCell id="N1RvEzRXoRiaCv0YoRP5-253" value="" style="curved=1;startArrow=none;endArrow=block;exitX=1;exitY=0.76;entryX=0.5;entryY=0;rounded=0;" edge="1" parent="1" source="N1RvEzRXoRiaCv0YoRP5-215" target="N1RvEzRXoRiaCv0YoRP5-227">
          <mxGeometry relative="1" as="geometry">
            <Array as="points">
              <mxPoint x="2225" y="162" />
            </Array>
          </mxGeometry>
        </mxCell>
        <mxCell id="N1RvEzRXoRiaCv0YoRP5-254" value="" style="curved=1;startArrow=none;endArrow=block;exitX=1;exitY=0.64;entryX=0.51;entryY=0;rounded=0;" edge="1" parent="1" source="N1RvEzRXoRiaCv0YoRP5-215" target="N1RvEzRXoRiaCv0YoRP5-228">
          <mxGeometry relative="1" as="geometry">
            <Array as="points">
              <mxPoint x="2462" y="162" />
            </Array>
          </mxGeometry>
        </mxCell>
        <mxCell id="N1RvEzRXoRiaCv0YoRP5-255" value="" style="curved=1;startArrow=none;endArrow=block;exitX=0;exitY=0.66;entryX=0.5;entryY=0;rounded=0;" edge="1" parent="1" source="N1RvEzRXoRiaCv0YoRP5-216" target="N1RvEzRXoRiaCv0YoRP5-229">
          <mxGeometry relative="1" as="geometry">
            <Array as="points">
              <mxPoint x="2662" y="162" />
            </Array>
          </mxGeometry>
        </mxCell>
        <mxCell id="N1RvEzRXoRiaCv0YoRP5-256" value="" style="curved=1;startArrow=none;endArrow=block;exitX=0;exitY=0.79;entryX=0.5;entryY=0;rounded=0;" edge="1" parent="1" source="N1RvEzRXoRiaCv0YoRP5-216" target="N1RvEzRXoRiaCv0YoRP5-230">
          <mxGeometry relative="1" as="geometry">
            <Array as="points">
              <mxPoint x="2873" y="162" />
            </Array>
          </mxGeometry>
        </mxCell>
        <mxCell id="N1RvEzRXoRiaCv0YoRP5-257" value="" style="curved=1;startArrow=none;endArrow=block;exitX=0.24;exitY=0.97;entryX=0.5;entryY=0;rounded=0;" edge="1" parent="1" source="N1RvEzRXoRiaCv0YoRP5-216" target="N1RvEzRXoRiaCv0YoRP5-231">
          <mxGeometry relative="1" as="geometry">
            <Array as="points">
              <mxPoint x="3065" y="162" />
            </Array>
          </mxGeometry>
        </mxCell>
        <mxCell id="N1RvEzRXoRiaCv0YoRP5-258" value="" style="curved=1;startArrow=none;endArrow=block;exitX=0.77;exitY=0.97;entryX=0.5;entryY=0;rounded=0;" edge="1" parent="1" source="N1RvEzRXoRiaCv0YoRP5-216" target="N1RvEzRXoRiaCv0YoRP5-232">
          <mxGeometry relative="1" as="geometry">
            <Array as="points">
              <mxPoint x="3259" y="162" />
            </Array>
          </mxGeometry>
        </mxCell>
        <mxCell id="N1RvEzRXoRiaCv0YoRP5-259" value="" style="curved=1;startArrow=none;endArrow=block;exitX=1;exitY=0.78;entryX=0.5;entryY=0;rounded=0;" edge="1" parent="1" source="N1RvEzRXoRiaCv0YoRP5-216" target="N1RvEzRXoRiaCv0YoRP5-233">
          <mxGeometry relative="1" as="geometry">
            <Array as="points">
              <mxPoint x="3470" y="162" />
            </Array>
          </mxGeometry>
        </mxCell>
        <mxCell id="N1RvEzRXoRiaCv0YoRP5-260" value="" style="curved=1;startArrow=none;endArrow=block;exitX=1;exitY=0.65;entryX=0.5;entryY=0;rounded=0;" edge="1" parent="1" source="N1RvEzRXoRiaCv0YoRP5-216" target="N1RvEzRXoRiaCv0YoRP5-234">
          <mxGeometry relative="1" as="geometry">
            <Array as="points">
              <mxPoint x="3683" y="162" />
            </Array>
          </mxGeometry>
        </mxCell>
        <mxCell id="N1RvEzRXoRiaCv0YoRP5-261" value="" style="curved=1;startArrow=none;endArrow=block;exitX=0;exitY=0.69;entryX=0.5;entryY=0;rounded=0;" edge="1" parent="1" source="N1RvEzRXoRiaCv0YoRP5-217" target="N1RvEzRXoRiaCv0YoRP5-235">
          <mxGeometry relative="1" as="geometry">
            <Array as="points">
              <mxPoint x="3895" y="162" />
            </Array>
          </mxGeometry>
        </mxCell>
        <mxCell id="N1RvEzRXoRiaCv0YoRP5-262" value="" style="curved=1;startArrow=none;endArrow=block;exitX=0;exitY=0.92;entryX=0.5;entryY=0;rounded=0;" edge="1" parent="1" source="N1RvEzRXoRiaCv0YoRP5-217" target="N1RvEzRXoRiaCv0YoRP5-236">
          <mxGeometry relative="1" as="geometry">
            <Array as="points">
              <mxPoint x="4162" y="162" />
            </Array>
          </mxGeometry>
        </mxCell>
        <mxCell id="N1RvEzRXoRiaCv0YoRP5-263" value="" style="curved=1;startArrow=none;endArrow=block;exitX=0.5;exitY=0.97;entryX=0.5;entryY=0;rounded=0;" edge="1" parent="1" source="N1RvEzRXoRiaCv0YoRP5-217" target="N1RvEzRXoRiaCv0YoRP5-237">
          <mxGeometry relative="1" as="geometry">
            <Array as="points" />
          </mxGeometry>
        </mxCell>
        <mxCell id="N1RvEzRXoRiaCv0YoRP5-264" value="" style="curved=1;startArrow=none;endArrow=block;exitX=0.9;exitY=0.97;entryX=0.5;entryY=0;rounded=0;" edge="1" parent="1" source="N1RvEzRXoRiaCv0YoRP5-217" target="N1RvEzRXoRiaCv0YoRP5-238">
          <mxGeometry relative="1" as="geometry">
            <Array as="points">
              <mxPoint x="4574" y="162" />
            </Array>
          </mxGeometry>
        </mxCell>
        <mxCell id="N1RvEzRXoRiaCv0YoRP5-265" value="" style="curved=1;startArrow=none;endArrow=block;exitX=1;exitY=0.74;entryX=0.5;entryY=0;rounded=0;" edge="1" parent="1" source="N1RvEzRXoRiaCv0YoRP5-217" target="N1RvEzRXoRiaCv0YoRP5-239">
          <mxGeometry relative="1" as="geometry">
            <Array as="points">
              <mxPoint x="4810" y="162" />
            </Array>
          </mxGeometry>
        </mxCell>
      </root>
    </mxGraphModel>
  </diagram>
</mxfile>
